<svg xmlns="http://www.w3.org/2000/svg" viewBox=".654 4.994 129.298 15.006">
  <path fill="currentColor" d="M11.4 12.42q.86.54 1.31 1.32t.45 1.74q0 2.26-1.72 3.46-1.16.84-3.14 1.06h-.08q-.28 0-.46-.18-.24-.22-.24-.52v-1.44q0-.26.18-.46t.44-.24q.94-.1 1.46-.44.4-.24.54-.62.08-.22.08-.56 0-.22-.08-.38t-.28-.3q-.58-.4-1.5-.68l-.32-.1q-1-.28-1.84-.46-.18-.04-.58-.14l-.22-.06q-.72-.18-1.52-.5-1.18-.5-1.94-1.26-.88-.88-.88-2.32 0-1.98 1.52-3.22Q3.62 5.24 5.5 5q.32-.04.55.18t.23.52v1.44q0 .26-.16.46t-.41.23-.51.11q-.58.22-.82.43t-.34.43q-.1.34-.1.64 0 .16.18.34.28.28.82.5.24.1.84.3l2.5.62.12.04q.94.26 1.36.4.94.32 1.64.78zM8.06 7.9q-.24-.06-.39-.25t-.15-.45V5.74q0-.32.26-.54.1-.1.26-.13t.3-.01q1.76.28 2.86 1.2 1.5 1.24 1.6 3.16.02.28-.19.51t-.51.23h-1.56q-.26 0-.46-.18t-.22-.44q-.08-.52-.34-.86-.42-.5-1.3-.76-.06 0-.08-.02h-.08zm-2.34 9.18q.24.04.4.24t.16.44v1.48q0 .32-.24.54-.2.16-.46.16h-.1q-1.86-.28-3.06-1.22Q.86 17.48.66 15.26q-.04-.32.18-.55t.52-.23h1.58q.28 0 .48.19t.22.47q.06 1 .98 1.54.42.24 1.1.4zm22.096-.12q.3 0 .5.21t.2.51v1.46q0 .28-.2.49t-.5.21h-9.88q-.28 0-.49-.21t-.21-.49v-1.46q0-.3.21-.51t.49-.21h9.88zm-9.88-3.1q-.28 0-.49-.21t-.21-.49v-1.5q0-.28.21-.49t.49-.21h8.98q.3 0 .51.21t.21.49v1.5q0 .28-.21.49t-.51.21h-8.98zM27.816 5q.3 0 .5.21t.2.49v1.46q0 .3-.2.51t-.5.21h-9.88q-.28 0-.49-.21t-.21-.51V5.7q0-.28.21-.49t.49-.21h9.88zm12.736 2.9q-.24-.04-.4-.24t-.16-.44V5.7q0-.3.24-.54.26-.2.58-.14 2.36.4 4 2.1.84.88 1.36 2 .08.14.07.32t-.11.34-.25.25-.33.09h-1.7q-.18 0-.34-.09t-.26-.25q-.28-.42-.52-.66-.9-.92-2.18-1.22zm-2.04-2.74q.24.24.24.54v1.52q0 .24-.16.44t-.4.24q-1.28.3-2.18 1.22-1.24 1.34-1.24 3.35t1.24 3.35q.86.92 2.18 1.22.24.04.4.24t.16.44v1.52q0 .32-.26.54-.2.16-.44.16h-.12q-2.4-.44-4-2.12-2.08-2.14-2.08-5.35t2.08-5.35q1.62-1.7 4-2.1.32-.06.58.14zm8.36 6.9q.02.14.02.42 0 .44-.06 1.02-.3 2.54-2.02 4.32-1.64 1.7-4 2.12h-.12q-.24 0-.46-.16-.24-.24-.24-.54v-1.52q0-.24.16-.44t.4-.24q1.32-.3 2.18-1.22.7-.74 1-1.7h-4.24q-.3 0-.5-.2t-.2-.5V12q0-.28.2-.49t.5-.21h6.68q.28 0 .48.19t.22.47v.1zM64.588 5q.28 0 .49.21t.21.49v13.4q0 .28-.21.49t-.49.21h-1.52q-.3 0-.5-.21t-.2-.49v-9.04l-3.7 4.76q-.22.26-.56.26-.16 0-.32-.07t-.24-.21l-6.56-8.68q-.12-.14-.14-.35t.08-.38.26-.28.36-.11h1.76q.34 0 .56.28l4.24 5.6 4.14-5.6q.22-.28.58-.28h1.76zm-11.52 9.7q.28 0 .49.2t.21.5v3.7q0 .28-.21.49t-.49.21h-1.52q-.28 0-.49-.21t-.21-.49v-3.7q0-.3.21-.5t.49-.2h1.52zm27.796 2.26q.3 0 .5.21t.2.51v1.46q0 .28-.2.49t-.5.21h-9.88q-.28 0-.49-.21t-.21-.49v-1.46q0-.3.21-.51t.49-.21h9.88zm-9.88-3.1q-.28 0-.49-.21t-.21-.49v-1.5q0-.28.21-.49t.49-.21h8.98q.3 0 .51.21t.21.49v1.5q0 .28-.21.49t-.51.21h-8.98zM80.864 5q.3 0 .5.21t.2.49v1.46q0 .3-.2.51t-.5.21h-9.88q-.28 0-.49-.21t-.21-.51V5.7q0-.28.21-.49t.49-.21h9.88zM98 5q.28 0 .49.21t.21.49v13.4q0 .28-.21.49t-.49.21h-1.76q-.36 0-.58-.28l-9.78-13.4q-.12-.16-.14-.36t.07-.38.26-.28.37-.1h1.76q.16 0 .32.07t.24.21l7.02 9.54V5.7q0-.28.2-.49t.5-.21H98zm-10.04 9.7q.28 0 .49.2t.21.5v3.7q0 .28-.21.49t-.49.21h-1.52q-.28 0-.49-.21t-.21-.49v-3.7q0-.3.21-.5t.49-.2h1.52zM105.116 5q.3 0 .51.21t.21.51v1.46q0 .3-.21.51t-.51.21h-2.06q-.28 0-.49-.21t-.21-.51V5.72q0-.3.21-.51t.49-.21h2.06zm8.94 0q.28 0 .49.21t.21.51v1.46q0 .3-.21.51t-.49.21h-4.02v11.36q0 .28-.21.49t-.49.21h-1.54q-.3 0-.51-.21t-.21-.49V5.72q0-.3.21-.51t.51-.21h6.26zm14.136 7.42q.86.54 1.31 1.32t.45 1.74q0 2.26-1.72 3.46-1.16.84-3.14 1.06h-.08q-.28 0-.46-.18-.24-.22-.24-.52v-1.44q0-.26.18-.46t.44-.24q.94-.1 1.46-.44.4-.24.54-.62.08-.22.08-.56 0-.22-.08-.38t-.28-.3q-.58-.4-1.5-.68l-.32-.1q-1-.28-1.84-.46-.18-.04-.58-.14l-.22-.06q-.72-.18-1.52-.5-1.18-.5-1.94-1.26-.88-.88-.88-2.32 0-1.98 1.52-3.22 1.04-.88 2.92-1.12.32-.04.55.18t.23.52v1.44q0 .26-.16.46t-.41.23-.51.11q-.58.22-.82.43t-.34.43q-.1.34-.1.64 0 .16.18.34.28.28.82.5.24.1.84.3l2.5.62.12.04q.94.26 1.36.4.94.32 1.64.78zm-3.34-4.52q-.24-.06-.39-.25t-.15-.45V5.74q0-.32.26-.54.1-.1.26-.13t.3-.01q1.76.28 2.86 1.2 1.5 1.24 1.6 3.16.02.28-.19.51t-.51.23h-1.56q-.26 0-.46-.18t-.22-.44q-.08-.52-.34-.86-.42-.5-1.3-.76-.06 0-.08-.02h-.08zm-2.34 9.18q.24.04.4.24t.16.44v1.48q0 .32-.24.54-.2.16-.46.16h-.1q-1.86-.28-3.06-1.22-1.56-1.24-1.76-3.46-.04-.32.18-.55t.52-.23h1.58q.28 0 .48.19t.22.47q.06 1 .98 1.54.42.24 1.1.4z"></path>
</svg>
